<?xml version="1.0" standalone="no"?>
<!DOCTYPE svg PUBLIC "-//W3C//DTD SVG 20010904//EN"
 "http://www.w3.org/TR/2001/REC-SVG-20010904/DTD/svg10.dtd">
<svg version="1.0" xmlns="http://www.w3.org/2000/svg"
 width="512.000000pt" height="512.000000pt" viewBox="0 0 512.000000 512.000000"
 preserveAspectRatio="xMidYMid meet">

<g transform="translate(0.000000,512.000000) scale(0.100000,-0.100000)"
fill="#000000" stroke="none">
<path d="M2488 4256 c-88 -24 -158 -86 -193 -169 -22 -53 -19 -162 6 -217 22
-50 80 -114 122 -136 l27 -15 0 -244 0 -245 110 0 110 0 0 245 0 244 28 15
c43 22 107 97 127 149 26 68 17 179 -18 240 -65 110 -200 167 -319 133z m122
-226 c11 -11 20 -31 20 -45 0 -31 -41 -75 -70 -75 -29 0 -70 44 -70 75 0 34
33 65 70 65 17 0 39 -9 50 -20z"/>
<path d="M1620 3375 c-348 -123 -439 -159 -457 -180 l-23 -26 0 -635 0 -634
105 0 105 0 0 540 0 540 53 -20 c28 -10 273 -96 542 -190 270 -95 493 -175
498 -179 4 -4 6 -338 5 -742 l-3 -735 -260 92 c-143 51 -267 93 -276 93 -12 1
-25 -24 -48 -89 -17 -49 -31 -93 -31 -98 0 -5 164 -67 365 -137 l366 -128 361
127 c199 69 364 129 367 131 4 5 -55 184 -65 194 -3 3 -67 -16 -142 -43 -75
-26 -199 -69 -275 -96 l-137 -47 2 740 3 740 395 139 c217 76 463 163 545 192
l150 53 3 -539 2 -538 105 0 105 0 0 636 0 636 -27 27 c-21 20 -102 53 -323
130 -162 57 -357 125 -433 152 l-137 48 -13 -32 c-29 -69 -61 -166 -57 -170 3
-2 124 -46 270 -97 146 -51 268 -95 272 -99 6 -6 -845 -308 -937 -333 -41 -11
-56 -6 -523 158 -265 92 -478 172 -474 176 4 4 123 47 265 97 142 50 262 93
267 96 8 5 -54 181 -69 196 -3 4 -202 -62 -441 -146z"/>
<path d="M1381 1536 c-130 -130 -134 -134 -165 -125 -65 19 -139 11 -204 -22
-102 -50 -155 -136 -155 -249 -1 -162 121 -284 283 -283 113 0 199 53 249 155
33 65 41 139 22 204 -9 31 -5 35 125 165 74 74 134 138 134 144 0 13 -132 145
-145 145 -6 0 -70 -60 -144 -134z m-196 -351 c30 -30 31 -54 4 -89 -14 -17
-30 -26 -50 -26 -65 0 -93 80 -43 119 35 27 59 26 89 -4z"/>
<path d="M3517 1602 c-37 -37 -67 -72 -67 -77 0 -6 60 -70 134 -144 130 -130
134 -134 125 -165 -19 -65 -11 -139 22 -204 50 -102 136 -155 249 -155 162 -1
284 121 283 283 0 113 -53 199 -155 249 -65 33 -139 41 -204 22 -31 -9 -35 -5
-165 125 -74 74 -138 134 -144 134 -6 0 -41 -30 -78 -68z m507 -413 c50 -39
22 -119 -43 -119 -33 0 -71 39 -71 72 0 24 44 68 68 68 11 0 31 -9 46 -21z"/>
</g>
</svg>
